# xmcd
#
# Track frame offsets: 
#        150
#        14638
#        30696
#        47057
#        66899
#        85341
#        106622
#        111659
#        139061
#        160296
#        183814
#        201271
#        222797
#        243878
#
# Disc length: 3514 seconds
#
# Revision: 0
# Processed by: cddbd v1.5.2PL0 Copyright (c) Steve Scherf et al.
# Submitted via: ExactAudioCopy v1.0b1
#
DISCID=c20db80e
DTITLE=Big Baali and Tomigun - Funkkia kiesiin
DYEAR=2011
DGENRE=Hip-Hop
TTITLE0=Kivet alkaa vieriä
TTITLE1=L.P.A.
TTITLE2=Kruisin’ (niinkö Iceberg Slim)
TTITLE3=Kymmenen Virran Maa
TTITLE4=Juna suistu raiteiltaan (feat. Edorf)
TTITLE5=Sana vapaa
TTITLE6=Musta nahkalompakko (skit)
TTITLE7=Mökille pakoon (feat. Murkku and Lempi-Joe)
TTITLE8=Funkkia kiesiin (feat. Anna-Kreetta)
TTITLE9=Pisto syämmessäin (feat. 6Mäki)
TTITLE10=Tännään ei jaksa (feat. Stepa)
TTITLE11=Big Dipper (feat. Tykopaatti)
TTITLE12=Klassikko
TTITLE13=Still kruisin’ (feat. Bala)
EXTD=
EXTT0=
EXTT1=
EXTT2=
EXTT3=
EXTT4=
EXTT5=
EXTT6=
EXTT7=
EXTT8=
EXTT9=
EXTT10=
EXTT11=
EXTT12=
EXTT13=
PLAYORDER=
